<?xml version="1.0" encoding="iso-8859-1"?>
<!-- Uploaded to: SVG Repo, www.svgrepo.com, Generator: SVG Repo Mixer Tools -->
<svg height="800px" width="800px" version="1.1" id="Layer_1" xmlns="http://www.w3.org/2000/svg" xmlns:xlink="http://www.w3.org/1999/xlink" 
	 viewBox="0 0 512.001 512.001" xml:space="preserve">
<path style="fill:#F49B40;" d="M506.564,122.627L122.627,506.564c-7.25,7.25-19.004,7.25-26.255,0L5.438,415.631
	c-7.25-7.25-7.25-19.004,0-26.255L389.376,5.438c7.25-7.25,19.004-7.25,26.255,0l90.933,90.933
	C513.814,103.622,513.814,115.376,506.564,122.627z"/>
<path style="fill:#FFCC73;" d="M460.018,49.827L415.631,5.438c-7.25-7.25-19.004-7.25-26.255,0L5.438,389.376
	c-7.25,7.25-7.25,19.004,0,26.255l44.388,44.388L460.018,49.827z"/>
<g>
	<path style="fill:#F5F5F5;" d="M406.53,128.098c7.252-7.249,7.25-19.004,0-26.255l-56.86-56.86l-26.255,26.255l56.86,56.86
		C387.526,135.35,399.28,135.35,406.53,128.098z"/>
	<path style="fill:#F5F5F5;" d="M342.643,156.978c7.25-7.25,7.25-19.004,0-26.255l-39.355-39.355l-26.255,26.255l39.355,39.355
		C323.638,164.229,335.392,164.23,342.643,156.978z"/>
	<path style="fill:#F5F5F5;" d="M313.763,220.866c7.249-7.249,7.25-19.004,0-26.255l-56.86-56.86l-26.255,26.255l56.86,56.86
		C294.757,228.116,306.511,228.117,313.763,220.866z"/>
	<path style="fill:#F5F5F5;" d="M249.875,249.747c7.25-7.249,7.25-19.004,0.001-26.255l-39.357-39.357l-26.255,26.255l39.355,39.355
		C230.871,256.997,242.625,256.997,249.875,249.747z"/>
	<path style="fill:#F5F5F5;" d="M220.994,313.633c7.249-7.249,7.25-19.004,0-26.255l-31.92-31.92l-24.94-24.94l-24.84,24.84
		l-1.415,1.415l56.86,56.86C201.99,320.884,213.745,320.884,220.994,313.633z"/>
	<polygon style="fill:#F5F5F5;" points="189.075,255.46 164.136,230.519 139.294,255.36 	"/>
	<path style="fill:#F5F5F5;" d="M157.108,342.514c7.249-7.249,7.25-19.004,0-26.255l-39.357-39.357l-26.255,26.255l39.357,39.357
		C138.104,349.765,149.858,349.765,157.108,342.514z"/>
	<path style="fill:#F5F5F5;" d="M128.227,406.401c7.252-7.249,7.25-19.004,0-26.255l-56.86-56.86l-26.255,26.255l56.86,56.86
		C109.223,413.652,120.977,413.652,128.227,406.401z"/>
</g>
</svg>